<?xml version="1.0" standalone="no"?>
<!DOCTYPE svg PUBLIC "-//W3C//DTD SVG 20010904//EN"
 "http://www.w3.org/TR/2001/REC-SVG-20010904/DTD/svg10.dtd">
<svg version="1.0" xmlns="http://www.w3.org/2000/svg"
 width="887.000000pt" height="224.000000pt" viewBox="0 0 887.000000 224.000000"
 preserveAspectRatio="xMidYMid meet">

<g transform="translate(0.000000,224.000000) scale(0.100000,-0.100000)"
fill="#000000" stroke="none">
<path d="M1893 1420 c-3 -10 -15 -22 -27 -26 -11 -4 -24 -12 -28 -18 -7 -11
-12 -13 -49 -15 -23 -1 -23 6 1 -111 7 -30 10 -96 8 -145 -4 -124 -41 -198
-153 -310 -92 -92 -157 -128 -264 -147 -120 -21 -284 18 -376 88 -54 41 -67
44 -34 7 18 -20 20 -25 7 -20 -11 4 -28 -3 -45 -19 -15 -14 -33 -29 -39 -32
-6 -4 -14 -16 -18 -27 -5 -17 4 -28 41 -57 102 -77 250 -128 368 -128 25 0 45
-4 45 -8 0 -20 -120 -37 -250 -37 -147 0 -210 14 -331 76 l-59 29 -14 -34
c-10 -25 -24 -37 -51 -46 -23 -8 -35 -17 -31 -25 3 -8 0 -15 -7 -18 -25 -8
125 -95 223 -129 416 -143 886 50 1079 444 41 84 81 197 81 229 0 10 5 21 10
24 18 11 12 206 -10 296 -39 157 -64 210 -77 159z"/>
<path d="M1496 1141 c-4 -7 -5 -15 -2 -18 9 -9 19 4 14 18 -4 11 -6 11 -12 0z"/>
</g>
</svg>
